<svg xmlns="http://www.w3.org/2000/svg" width="1440" height="140" viewBox="0 0 1440 140" fill="none">
<path d="M0 98L30 91C60 84 120 70 180 65.3188C240 60.8125 300 65.1875 360 77C420 88.8125 480 107.187 540 109.681C600 112 660 98 720 84C780 70 840 56 900 60.6812C960 65.1875 1020 88.8125 1080 81.6812C1140 74.8125 1200 37.1875 1260 25.6812C1320 14 1380 28 1410 35L1440 42V140H1410C1380 140 1320 140 1260 140C1200 140 1140 140 1080 140C1020 140 960 140 900 140C840 140 780 140 720 140C660 140 600 140 540 140C480 140 420 140 360 140C300 140 240 140 180 140C120 140 60 140 30 140H0V98Z" fill="#CA9A4E"/>
<path d="M0 70L30 77C60 84 120 98 180 88.6812C240 79.1875 300 46.8125 360 46.6812C420 46.8125 480 79.1875 540 91C600 102.812 660 93.1875 720 95.6812C780 98 840 112 900 119C960 126 1020 126 1080 119C1140 112 1200 98 1260 86.3187C1320 74.8125 1380 65.1875 1410 60.6812L1440 56V140H1410C1380 140 1320 140 1260 140C1200 140 1140 140 1080 140C1020 140 960 140 900 140C840 140 780 140 720 140C660 140 600 140 540 140C480 140 420 140 360 140C300 140 240 140 180 140C120 140 60 140 30 140H0V70Z" fill="#7D2A0C"/>
</svg>