<svg width="32" height="32" viewBox="0 0 32 32" fill="none" xmlns="http://www.w3.org/2000/svg">
<rect x="0.5" y="0.499969" width="31" height="31" rx="5.5" fill="#FF0000"/>
<path d="M24.25 8.49997H19.75V6.99997H12.25V8.49997H7.75C7.55109 8.49997 7.36032 8.57899 7.21967 8.71964C7.07902 8.86029 7 9.05106 7 9.24997V10.75C7 10.9489 7.07902 11.1396 7.21967 11.2803C7.36032 11.421 7.55109 11.5 7.75 11.5H24.25C24.4489 11.5 24.6397 11.421 24.7803 11.2803C24.921 11.1396 25 10.9489 25 10.75V9.24997C25 9.05106 24.921 8.86029 24.7803 8.71964C24.6397 8.57899 24.4489 8.49997 24.25 8.49997Z" fill="white"/>
<path d="M20.71 25H11.365C10.9976 25.0028 10.642 24.8708 10.3655 24.6289C10.089 24.387 9.91091 24.052 9.865 23.6875L8.5 13H23.5L22.2025 23.6875C22.1567 24.0507 21.9797 24.3846 21.7048 24.6264C21.4299 24.8681 21.0761 25.001 20.71 25Z" fill="white"/>
<rect x="0.5" y="0.499969" width="31" height="31" rx="5.5" stroke="#FF0000"/>
</svg>
