<svg id="visual" viewBox="0 0 1440 320" width="1440" height="320" xmlns="http://www.w3.org/2000/svg" xmlns:xlink="http://www.w3.org/1999/xlink" version="1.1"><path d="M0 165L60 170.7C120 176.3 240 187.7 360 180.8C480 174 600 149 720 143C840 137 960 150 1080 155.7C1200 161.3 1320 159.7 1380 158.8L1440 158L1440 321L1380 321C1320 321 1200 321 1080 321C960 321 840 321 720 321C600 321 480 321 360 321C240 321 120 321 60 321L0 321Z" fill="#ca9a4e"></path><path d="M0 186L60 196C120 206 240 226 360 230C480 234 600 222 720 221.5C840 221 960 232 1080 223.8C1200 215.7 1320 188.3 1380 174.7L1440 161L1440 321L1380 321C1320 321 1200 321 1080 321C960 321 840 321 720 321C600 321 480 321 360 321C240 321 120 321 60 321L0 321Z" fill="#7d2a0c"></path></svg>