<svg width="390" height="100" viewBox="0 0 390 100" fill="none" xmlns="http://www.w3.org/2000/svg">
<path d="M390 10L380.71 23.3437C371.421 36.5625 352.896 63.4375 334.208 68.3438C315.71 73.4375 297.104 56.5625 278.687 55C260 53.4375 241.312 66.5625 222.896 70C204.29 73.4375 185.792 66.5625 167.104 68.3438C148.579 70 130 80 111.312 76.6562C92.8687 73.4375 74.2083 56.5625 55.7917 43.3438C37.1312 30 18.6875 20 9.20831 15L0 10V100H9.28958C18.5792 100 37.1042 100 55.7917 100C74.2896 100 92.8958 100 111.312 100C130 100 148.687 100 167.104 100C185.71 100 204.208 100 222.896 100C241.421 100 260 100 278.687 100C297.131 100 315.792 100 334.208 100C352.869 100 371.312 100 380.792 100H390V10Z" fill="#CA9A4E"/>
<path d="M0 10L9.28958 23.3437C18.5792 36.5625 37.1042 63.4375 55.7917 68.3437C74.2896 73.4375 92.8958 56.5625 111.313 55C130 53.4375 148.688 66.5625 167.104 70C185.71 73.4375 204.208 66.5625 222.896 68.3437C241.421 70 260 80 278.688 76.6562C297.131 73.4375 315.792 56.5625 334.208 43.3437C352.869 30 371.312 20 380.792 15L390 10V100H380.71C371.421 100 352.896 100 334.208 100C315.71 100 297.104 100 278.688 100C260 100 241.313 100 222.896 100C204.29 100 185.792 100 167.104 100C148.579 100 130 100 111.313 100C92.8688 100 74.2083 100 55.7917 100C37.1313 100 18.6875 100 9.20833 100H0V10Z" fill="#7D2A0C"/>
</svg>
