<svg width="1440" height="577" viewBox="0 0 1440 577" fill="none" xmlns="http://www.w3.org/2000/svg">
<path d="M0 25.9L26.7 51.8C53.3 77.7 107 129.5 160 146.74C213.3 164.303 267 146.497 320 133.79C373.3 120.597 427 112.503 480 125.21C533.3 138.403 587 172.397 640 155.4C693.3 138.403 747 68.7969 800 51.8C853.3 34.8031 907 68.7969 960 86.3603C1013.3 103.6 1067 103.6 1120 107.89C1173.3 112.503 1227 120.597 1280 112.26C1333.3 103.6 1387 77.7 1413 64.75L1440 51.8V259H1413.3C1386.7 259 1333 259 1280 259C1226.7 259 1173 259 1120 259C1066.7 259 1013 259 960 259C906.7 259 853 259 800 259C746.7 259 693 259 640 259C586.7 259 533 259 480 259C426.7 259 373 259 320 259C266.7 259 213 259 160 259C106.7 259 53 259 27 259H0V25.9Z" fill="#CA9A4E"/>
<path d="M0 84L26.7 100.641C53.3 117.594 107 150.406 160 163.141C213.3 175.406 267 167.594 320 154.859C373.3 142.594 427 125.406 480 104.859C533.3 84 587 59 640 54.8594C693.3 50.4063 747 67.5938 800 96.5C853.3 125.406 907 167.594 960 171.5C1013.3 175.406 1067 142.594 1120 121.5C1173.3 100.406 1227 92.5938 1280 100.641C1333.3 109 1387 134 1413 146.5L1440 159V259H1413.3C1386.7 259 1333 259 1280 259C1226.7 259 1173 259 1120 259C1066.7 259 1013 259 960 259C906.7 259 853 259 800 259C746.7 259 693 259 640 259C586.7 259 533 259 480 259C426.7 259 373 259 320 259C266.7 259 213 259 160 259C106.7 259 53 259 27 259H0V84Z" fill="#7D2A0C"/>
<rect y="259" width="1440" height="318" fill="#7D2A0C"/>
</svg>
