<svg width="20" height="20" viewBox="0 0 20 20" fill="none" xmlns="http://www.w3.org/2000/svg">
<path d="M18.8696 0H1.13037C0.507138 0 0 0.689091 0 1.53593V3.76259C0 4.60952 0.507138 5.29861 1.13037 5.29861H18.8696C19.4929 5.29861 20 4.60952 20 3.76259V1.53593C20 0.689091 19.4929 0 18.8696 0Z" fill="white"/>
<path d="M18.8696 7.35071H1.13037C0.507138 7.35071 0 8.0398 0 8.88664V11.1134C0 11.9602 0.507138 12.6493 1.13037 12.6493H18.8696C19.4929 12.6493 20 11.9602 20 11.1134V8.88664C20 8.0398 19.4929 7.35071 18.8696 7.35071Z" fill="white"/>
<path d="M18.8696 14.7014H1.13037C0.507138 14.7014 0 15.3904 0 16.2374V18.4641C0 19.3109 0.507138 20 1.13037 20H18.8696C19.4929 20 20 19.3109 20 18.4641V16.2374C20 15.3904 19.4929 14.7014 18.8696 14.7014Z" fill="white"/>
</svg>
