<svg width="1440" height="156" viewBox="0 0 1440 156" fill="none" xmlns="http://www.w3.org/2000/svg">
<path d="M0 30H30C60 30 120 30 180 44C240 58 300 86 360 83.6812C420 81.1875 480 48.8125 540 53.3188C600 58 660 100 720 116.319C780 132.812 840 123.188 900 118.681C960 114 1020 114 1080 107C1140 100 1200 86 1260 90.6812C1320 95.1875 1380 118.812 1410 130.319L1440 142V156H1410C1380 156 1320 156 1260 156C1200 156 1140 156 1080 156C1020 156 960 156 900 156C840 156 780 156 720 156C660 156 600 156 540 156C480 156 420 156 360 156C300 156 240 156 180 156C120 156 60 156 30 156H0V30Z" fill="#7D2A0C"/>
<path d="M0 46.8L30 59.8162C60 72.6375 120 98.9625 180 109.2C240 119.437 300 114.562 360 114.416C420 114.562 480 119.437 540 124.8C600 130.162 660 135.037 720 117C780 98.9625 840 57.0375 900 52.0162C960 46.8 1020 78 1080 78C1140 78 1200 46.8 1260 31.2C1320 15.6 1380 15.6 1410 15.6H1440V156H1410C1380 156 1320 156 1260 156C1200 156 1140 156 1080 156C1020 156 960 156 900 156C840 156 780 156 720 156C660 156 600 156 540 156C480 156 420 156 360 156C300 156 240 156 180 156C120 156 60 156 30 156H0V46.8Z" fill="#CA9A4E"/>
</svg>
