<svg width="390" height="164" viewBox="0 0 390 164" fill="none" xmlns="http://www.w3.org/2000/svg">
<path d="M-1.98185e-06 88.0001C-1.98185e-06 22.0001 -6.5 97.5 71 110.5C148.5 123.5 135 113.5 174 98.5001C213 83.5001 220.5 94.5 288.5 110.5C356.5 126.5 390 92.5001 390 92.5001V164L-1.98185e-06 163.874V88.0001Z" fill="#CA9A4E"/>
<path d="M-1.98185e-06 88.0001C-1.98185e-06 22.0001 -6.5 97.5 71 110.5C148.5 123.5 135 113.5 174 98.5001C213 83.5001 220.5 94.5 288.5 110.5C356.5 126.5 390 92.5001 390 92.5001V164L-1.98185e-06 163.874M-1.98185e-06 88.0001C-1.98185e-06 154 -1.98185e-06 163.874 -1.98185e-06 163.874M-1.98185e-06 88.0001V163.874" stroke="#CA9A4E"/>
<path d="M0.5 0.5C0.5 7.50004 29.66 82.8229 34.66 89.8229C39.66 96.8229 42.1601 130.323 78.1601 140.323C114.16 150.323 270.16 154.323 298.66 140.323C327.16 126.323 324.16 118.323 337.66 89.8229C351.16 61.3229 390 3.75523 390 3.75523V164L0.354248 163.818C0.354248 163.818 0.5 -6.50004 0.5 0.5Z" fill="#7D2A0C" stroke="#7D2A0C"/>
</svg>
