<svg width="1440" height="630" viewBox="0 0 1440 630" fill="none" xmlns="http://www.w3.org/2000/svg">
<path d="M1 470L31 443.3C61 417 121 363 181 384.7C241 406 301 502 361 507.3C421 513 481 427 541 422C601 417 661 491 721 486C781 481 841 395 901 384.7C961 374 1021 438 1081 454C1141 470 1201 438 1261 432.7C1321 427 1381 449 1411 459.3L1441 470V310H1411C1381 310 1321 310 1261 310C1201 310 1141 310 1081 310C1021 310 961 310 901 310C841 310 781 310 721 310C661 310 601 310 541 310C481 310 421 310 361 310C301 310 241 310 181 310C121 310 61 310 31 310H1V470Z" fill="#CA9A4E"/>
<path d="M0 498L16 471.3C32 445 64 391 96 375.3C128 359 160 381 192 391.3C224 402 256 402 288 423.3C320 445 352 487 384 476.7C416 466 448 402 480 370C512 338 544 338 576 343.3C608 349 640 359 672 354C704 349 736 327 768 343.3C800 359 832 413 864 418C896 423 928 381 960 386C992 391 1024 445 1056 450C1088 455 1120 413 1152 391.3C1184 370 1216 370 1248 354C1280 338 1312 306 1344 316.7C1376 327 1408 381 1424 407.3L1440 434V242H1424C1408 242 1376 242 1344 242C1312 242 1280 242 1248 242C1216 242 1184 242 1152 242C1120 242 1088 242 1056 242C1024 242 992 242 960 242C928 242 896 242 864 242C832 242 800 242 768 242C736 242 704 242 672 242C640 242 608 242 576 242C544 242 512 242 480 242C448 242 416 242 384 242C352 242 320 242 288 242C256 242 224 242 192 242C160 242 128 242 96 242C64 242 32 242 16 242H0V498Z" fill="#7D2A0C"/>
<rect width="1440" height="252" fill="#7D2A0C"/>
</svg>
